<?xml version="1.0" standalone="no"?>
<!DOCTYPE svg PUBLIC "-//W3C//DTD SVG 20010904//EN"
 "http://www.w3.org/TR/2001/REC-SVG-20010904/DTD/svg10.dtd">
<svg version="1.0" xmlns="http://www.w3.org/2000/svg"
 width="1536.000000pt" height="1536.000000pt" viewBox="0 0 1536.000000 1536.000000"
 preserveAspectRatio="xMidYMid meet">
<metadata>
Created by potrace 1.14, written by Peter Selinger 2001-2017
</metadata>
<g transform="translate(0.000000,1536.000000) scale(0.100000,-0.100000)"
fill="#000000" stroke="none">
<path d="M0 7680 l0 -7680 1650 0 1650 0 0 7680 0 7680 -1650 0 -1650 0 0
-7680z"/>
<path d="M3580 7680 l0 -7680 5890 0 5890 0 0 7680 0 7680 -5890 0 -5890 0 0
-7680z m7860 2078 c0 -205 -14 -830 -30 -1388 -16 -558 -30 -1021 -30 -1028 0
-10 -38 -12 -172 -10 l-173 3 -27 945 c-14 520 -27 1149 -27 1398 l-1 452 230
0 230 0 0 -372z m-3024 -628 c85 -22 176 -66 259 -125 62 -44 178 -159 209
-207 10 -16 24 -28 30 -28 7 0 26 65 46 160 l35 160 187 0 188 0 0 -1950 0
-1950 -230 0 -230 0 0 787 0 787 -44 -72 c-99 -160 -234 -312 -347 -389 -139
-96 -274 -137 -444 -137 -235 1 -414 78 -570 246 -232 247 -346 625 -346 1148
-1 419 59 718 200 997 133 265 310 446 522 534 166 68 363 82 535 39z m-2616
-430 l0 -390 -345 0 -345 0 0 390 0 390 345 0 345 0 0 -390z m0 -2080 l0 -390
-345 0 -345 0 0 390 0 390 345 0 345 0 0 -390z m5700 -100 l0 -290 -290 0
-290 0 0 290 0 290 290 0 290 0 0 -290z"/>
<path d="M8201 8760 c-243 -36 -418 -244 -501 -595 -79 -330 -70 -871 17
-1150 69 -220 181 -349 339 -390 268 -70 543 84 795 444 l59 84 0 613 0 613
-91 95 c-210 221 -417 316 -618 286z"/>
</g>
</svg>
